<?xml version="1.0" encoding="utf-8"?>
<!-- Generator: Adobe Illustrator 16.0.0, SVG Export Plug-In . SVG Version: 6.00 Build 0)  -->
<!DOCTYPE svg PUBLIC "-//W3C//DTD SVG 1.1//EN" "http://www.w3.org/Graphics/SVG/1.1/DTD/svg11.dtd">
<svg version="1.1" id="Layer_1" xmlns="http://www.w3.org/2000/svg" xmlns:xlink="http://www.w3.org/1999/xlink" x="0px" y="0px"
	 width="60px" height="60px" viewBox="0 0 60 60" style="enable-background:new 0 0 60 60;" xml:space="preserve">
<style type="text/css">
<![CDATA[
	
		.st0{fill-rule:evenodd;clip-rule:evenodd;fill:none;stroke:#231F20;stroke-width:1.5;stroke-linecap:round;stroke-linejoin:round;stroke-miterlimit:10;}
	.st1{fill:none;stroke:#231F20;stroke-width:1.5;stroke-linecap:round;stroke-linejoin:round;stroke-miterlimit:10;}
]]>
</style>
<g>
	<g>
		<path class="st1" d="M41.875,54.871l4.503,3.963C46.503,58.943,46.661,59,46.818,59c0.125,0,0.253-0.035,0.365-0.108
			c0.25-0.164,0.361-0.474,0.271-0.76l-1.89-6.048"/>
		<path class="st1" d="M13.922,51.835l-1.968,6.297c-0.09,0.286,0.021,0.596,0.271,0.76C12.338,58.965,12.463,59,12.591,59
			c0.157,0,0.312-0.057,0.438-0.166l4.769-4.197"/>
	</g>
	<circle class="st1" cx="30" cy="32.622" r="24.895"/>
	<circle class="st1" cx="30" cy="32.622" r="18.953"/>
	<g>
		<path class="st1" d="M25.637,4.84L6.953,15.026c-2.21-4.053,0.182-9.618,5.341-12.431C17.455-0.218,23.428,0.789,25.637,4.84z"/>
	</g>
	<g>
		<path class="st1" d="M35.01,4.84l18.688,10.187c2.206-4.053-0.186-9.618-5.344-12.431C43.191-0.218,37.22,0.789,35.01,4.84z"/>
	</g>
</g>
<line class="st1" x1="30.001" y1="22.25" x2="30.001" y2="32.623"/>
<line class="st1" x1="30" y1="32.623" x2="41.876" y2="44.499"/>
</svg>
