<?xml version="1.0" encoding="utf-8"?>
<!-- Generator: Adobe Illustrator 16.0.0, SVG Export Plug-In . SVG Version: 6.00 Build 0)  -->
<!DOCTYPE svg PUBLIC "-//W3C//DTD SVG 1.1//EN" "http://www.w3.org/Graphics/SVG/1.1/DTD/svg11.dtd">
<svg version="1.1" id="Layer_1" xmlns="http://www.w3.org/2000/svg" xmlns:xlink="http://www.w3.org/1999/xlink" x="0px" y="0px"
	 width="60px" height="60px" viewBox="0 0 60 60" style="enable-background:new 0 0 60 60;" xml:space="preserve">
<style type="text/css">
<![CDATA[
	
		.st0{clip-path:url(#SVGID_4_);fill:none;stroke:#231F20;stroke-width:1.5;stroke-linecap:round;stroke-linejoin:round;stroke-miterlimit:10;}
	
		.st1{fill-rule:evenodd;clip-rule:evenodd;fill:none;stroke:#231F20;stroke-width:1.5;stroke-linecap:round;stroke-linejoin:round;stroke-miterlimit:10;}
	.st2{clip-path:url(#SVGID_3_);}
	.st3{fill:none;stroke:#231F20;stroke-width:1.5;stroke-linecap:round;stroke-linejoin:round;stroke-miterlimit:10;}
]]>
</style>
<g>
	<g>
		<g>
			<path class="st3" d="M9.575,34.721c-0.133-0.62-0.202-1.253-0.202-1.896c0-1.736,0.875-4.574,2.458-6.24"/>
			<path class="st3" d="M49.531,28.986c0.552,1.216,0.848,2.504,0.848,3.838c0,0.648-0.07,1.286-0.206,1.91"/>
			<g>
				<g>
					<path class="st3" d="M49.689,22.619c-0.284-0.488-0.936-1.021-0.974-1.136c-0.065-0.198,0.024-1.281-0.405-2.8
						c-0.69-2.432-1.291-2.284-2.45-3.937c-0.056-0.081-0.611-2.032-1.688-3.262c-3.285-3.753-5.689-3.565-6.206-3.995
						C31.399,2.01,25.912,1.492,21.337,1c0,0,3.827,6.154,1.055,9.086c0,0-1.818,0.547-2.19,0.669
						c-1.117,0.364-3.042,1.095-4.502,2.979c-0.739,0.957-1.318,1.963-1.46,2.069c0,0-0.791-0.062-1.582,0.427
						c-2.62,1.613-3.207,3.455-2.92,5.172c0.583,3.495,2.92,11.072,15.574,13.262c12.654,2.191,18.374-1.46,20.077-2.312
						C45.39,32.352,53.283,28.782,49.689,22.619z"/>
				</g>
				<path class="st3" d="M14.24,15.804h-0.183c1.461,2.336,11.106,17.03,34.845,5.888"/>
				<path class="st3" d="M21.905,10.288c0.975,3.366,5.603,9.532,23.955,4.459"/>
				<path class="st3" d="M37.663,7.268c0,0-1.399,3.467-5.618,3.143"/>
			</g>
			<g>
				<path class="st3" d="M44.196,54.375c0,0-2.81,4.625-14.23,4.625s-14.229-4.625-14.229-4.625l-6.181-19.65
					c0,0,3.159,6.389,20.411,6.389c17.253,0,20.168-6.389,20.168-6.389L44.196,54.375z"/>
			</g>
		</g>
	</g>
	<line class="st3" x1="35.998" y1="58.417" x2="37.165" y2="43.167"/>
	<line class="st3" x1="29.748" y1="58.917" x2="29.748" y2="43.167"/>
	<line class="st3" x1="23.748" y1="58.417" x2="22.581" y2="43.167"/>
	<line class="st3" x1="18.331" y1="56.5" x2="16.665" y2="42"/>
	<line class="st3" x1="41.665" y1="56.5" x2="43.331" y2="42"/>
</g>
</svg>
